<svg xmlns="http://www.w3.org/2000/svg" width="24" height="24" viewBox="0 0 15.938 15.938" xml:space="preserve"><path fill="#2b2b2b" d="M10.393.695c-.142.164.097.38.246.221.142-.164-.098-.38-.246-.221M2.555 5.762c-.143.164.098.38.245.221.143-.164-.098-.38-.245-.221" data-original="#2b2b2b"/><path fill="#ed9d3e" d="M4.383 3.935s.48-1.88-1.473-2.403c0 0-.545 1.99 1.473 2.403" data-original="#ed9d3e"/><path fill="#ffd066" d="M4.466 3.935s-.432-.679-1.639-.723c0 0-.03.962.808 1.46l.11.307 1.641.497z" data-original="#ffd066"/><path fill="#ffd066" d="M4.461 6.282s-.993-.437-.826-1.61a1.3 1.3 0 0 0 .613.245c.358.041.903.209 1.19.559s.722 1.495.722 1.495l-.276.24c-.596-.077-1.049-.427-1.423-.93" data-original="#ffd066"/><path fill="#ffd066" d="M4.879 7.72s-.594-.53-.418-1.438c0 0 .228.214.666.247a1.44 1.44 0 0 1 1.172.838l.432 1.369c-.76-.145-1.417-.429-1.852-1.016" data-original="#ffd066"/><path fill="#ffd066" d="M6.486 10.03s-1.383-.516-1.607-2.31c0 0 .278.227.792.343 1.197.304 1.262 1.311 1.565 2.391z" data-original="#ffd066"/><path fill="#ffd066" d="M7.517 11.844s-.135-.355-.838-.571-1.305-.854-1.243-1.584a3.2 3.2 0 0 0 .823.21c.436.057.881.386 1.04.744z" data-original="#ffd066"/><g fill="#ed9d3e"><path d="M5.308 5.713a12 12 0 0 0-.932-1.515c-.424-.593-.271-1.331.19-1.901 0 0 1.314.77.742 3.416" data-original="#ed9d3e"/><path d="M6.11 7.29s-.375-.845-.802-1.576c-.422-.702-.148-1.594.527-2.034 0 0 1.214 1.373.275 3.61" data-original="#ed9d3e"/><path d="M6.672 8.894s-.271-.848-.562-1.604c-.278-.718.002-1.553.675-1.927 0 0 1.038 1.47-.113 3.531" data-original="#ed9d3e"/><path d="m7.182 10.641-.51-1.747s-.171-.981.843-1.711c0 0 .965 1.701-.333 3.458" data-original="#ed9d3e"/><path d="M8.377 9.009c-.3.054-1.408.549-1.195 1.631l.335 1.204s.158-.458.53-.763c.369-.303.761-1.353.331-2.072m3.779-5.157s-.435-1.809 1.445-2.284c0 0 .495 1.915-1.445 2.284" data-original="#ed9d3e"/><path d="M12.076 3.851s.423-.645 1.582-.671c0 0 .016.923-.795 1.389l-.11.293-1.58.454z" data-original="#ed9d3e"/><path d="M12.049 6.101s.836-.482.814-1.532a1.26 1.26 0 0 1-.591.227c-.343.034-.869.188-1.149.52s-.712 1.424-.712 1.424l.261.234c.572-.066 1.012-.396 1.377-.872" data-original="#ed9d3e"/><path d="M11.629 7.475s.577-.5.42-1.373c0 0-.221.202-.642.228a1.38 1.38 0 0 0-1.135.787l-.433 1.306c.731-.128 1.365-.392 1.789-.948" data-original="#ed9d3e"/><path d="M10.056 9.667s1.334-.476 1.573-2.193c0 0-.27.214-.764.318-1.152.275-1.228 1.24-1.534 2.271z" data-original="#ed9d3e"/><path d="M9.043 11.393s.134-.338.811-.536 1.263-.801 1.213-1.502a3 3 0 0 1-.792.19c-.418.049-.85.358-1.007.699z" data-original="#ed9d3e"/></g><path fill="#ffd066" d="M11.245 5.544a11.4 11.4 0 0 1 .914-1.44c.415-.563.278-1.273-.156-1.826 0 0-1.27.72-.759 3.266" data-original="#ffd066"/><path fill="#ffd066" d="M10.454 7.045s.372-.806.791-1.501c.415-.667.163-1.527-.478-1.957 0 0-1.183 1.3-.313 3.458" data-original="#ffd066"/><path fill="#ffd066" d="M9.893 8.575s.272-.81.561-1.53c.277-.684.02-1.489-.621-1.856 0 0-1.016 1.395.06 3.387" data-original="#ffd066"/><path fill="#ffd066" d="m9.38 10.243.513-1.668s.177-.938-.785-1.652c0 0-.948 1.618.272 3.32" data-original="#ffd066"/><path fill="#ffd066" d="M8.468 8.734s.698.366.907.981a.9.9 0 0 1 .005.528l-.338 1.15s-.145-.441-.497-.739c-.349-.295-.5-1.236-.077-1.92" data-original="#ffd066"/><path fill="#2b2b2b" d="M7.537 3.255c.159.148-.057.388-.221.245-.159-.148.057-.388.221-.245" data-original="#2b2b2b"/><path fill="#2b2b2b" d="M14.243 5.184c.122-.175-.135-.36-.263-.19-.006.008-.534.719-1.444.903a1.9 1.9 0 0 0 .489-1.236c.802-.519.796-1.443.795-1.483a.167.167 0 0 0-.199-.158c.338-.69.146-1.456.137-1.492a.16.16 0 0 0-.197-.117q-.652.166-1.047.55c.219-.863.672-1.283.68-1.291a.162.162 0 0 0-.216-.242c-.029.026-.645.586-.844 1.756a.163.163 0 0 0-.212-.047c-.029.016-.657.385-.882 1.462-.106-.09-.261-.261-.394-.121-.02.022-.392.439-.575 1.185-.323-1.561.318-3.043.327-3.064a.162.162 0 1 0-.297-.132c-.035.078-.779 1.792-.276 3.56-.149-.027-.54.654-.588 1.612-.521-1.076-.136-2.524-.132-2.541a.162.162 0 0 0-.313-.086c-.02.074-.436 1.634.179 2.823-.03.046-.444.768-.368 1.793-.229-.175-.321.093-.399.263a2 2 0 0 0-.197.078 3.46 3.46 0 0 0-.333-1.833c.751-1.208.202-3.042.175-3.129a.162.162 0 0 0-.31.095c.006.02.542 1.81-.162 2.894.013-1.044-.437-1.696-.459-1.727-.079-.115-.217-.061-.306.009-.112-1.087-.619-1.669-.666-1.717.434-1.064-.191-2.284-.223-2.345a.162.162 0 0 0-.288.15c.007.014.674 1.321.101 2.287-.225-1.097-.859-1.481-.888-1.498-.143-.082-.251.075-.333.173-.272-.464-.729-.785-1.362-.954a.16.16 0 0 0-.198.114c-.01.038-.222.84.126 1.565l-.015-.002a1.9 1.9 0 0 1-.9-.731c-.111-.181-.384-.02-.279.165a2.24 2.24 0 0 0 .982.839c.019.279.134.985.794 1.431-.088.96.553 1.453.82 1.614a1.75 1.75 0 0 0 .173 1.041c-.441-.168-1.07-.473-1.292-.906a.162.162 0 1 0-.289.148c.361.703 1.503 1.09 1.858 1.195a3.2 3.2 0 0 0 .604 1.445 4.4 4.4 0 0 0-1.228-.178C2.613 9.09 2.342 8.069 2.331 8.027a.162.162 0 1 0-.315.075c.003.013.332 1.308 2.088 1.336.518.008.905.087 1.187.181-.145.863.607 1.585 1.34 1.809.366.112.649.383.729.466a13 13 0 0 1 .111 1.735 2.53 2.53 0 0 0-.923-1.127c-.185-.104-.346.168-.164.28.124.016 1.365 1.078.839 2.548a.162.162 0 1 0 .303.115c.464-1.221.202-3.263.157-3.583.042-.1.188-.426.466-.655a1.4 1.4 0 0 0 .313-.409 1.7 1.7 0 0 1 .412.606 25 25 0 0 0-.358 2.325 21 21 0 0 0-.112 1.581c-.003.212.314.224.324.01q.005-.17.014-.338c.263-1.443 1.878-2.278 1.896-2.286a.162.162 0 0 0-.146-.29c-.055.028-1.066.549-1.669 1.511l.015-.146c.589-1.854 2.646-2.632 2.667-2.64a.162.162 0 0 0-.112-.305c-.075.028-1.558.586-2.425 1.921.136-.91.222-1.236.247-1.404.077-.075.297-.219.684-.332.67-.196 1.319-.783 1.332-1.548 1.376-.551 1.688-1.655 1.701-1.703a.162.162 0 1 0-.313-.084c.008.002-.33 1.086-1.626 1.527.334-.35.668-.88.788-1.652a1.67 1.67 0 0 0 .452-1.292c1.261-.061 1.978-1.034 2.01-1.078M7.455 7.437a3.2 3.2 0 0 1 .199 1.733 1.6 1.6 0 0 0-.46.491 19 19 0 0 0-.364-1.087c.023-.31.231-.82.626-1.137m-.724-1.846a3.05 3.05 0 0 1 .29 1.817 2 2 0 0 0-.393.637 25 25 0 0 0-.431-1.02c-.114-.549.093-1.116.534-1.434m-.928-1.684a3.1 3.1 0 0 1 .5 1.631 1.7 1.7 0 0 0-.421.807 29 29 0 0 0-.602-1.182c-.07-.486.152-.952.523-1.256M4.458 2.712a1 1 0 0 1 .126-.199c.186.162.578.601.681 1.498a1.6 1.6 0 0 0-.282.614c-.421-.775-.858-1.136-.525-1.913m-1.423-.973q.8.27 1.088.929a1.5 1.5 0 0 0-.093.734 2.5 2.5 0 0 0-.735-.282c-.342-.482-.304-1.093-.26-1.381m-.034 1.657c1.257.236 1.205.603 1.742 1.466a2.5 2.5 0 0 0-.477-.106 1.2 1.2 0 0 1-.53-.211c-.544-.312-.705-.869-.735-1.149m.778 1.55a1.4 1.4 0 0 0 .451.132 2.1 2.1 0 0 1 .77.247 29 29 0 0 1 .578 1.132 1.4 1.4 0 0 0-.366-.131 4 4 0 0 1-.686-.193c-.05-.022-.738-.353-.746-1.186zm.816 1.556a4 4 0 0 0 .558.143c.145.026.419.15.681.36a25 25 0 0 1 .501 1.177 1.7 1.7 0 0 0-.628-.278 2 2 0 0 1-.722-.308 1.4 1.4 0 0 1-.389-1.094zm.506 1.536a2.6 2.6 0 0 0 .534.183c.838.188 1.081.878 1.324 1.79a1.6 1.6 0 0 0-.682-.275 2.74 2.74 0 0 1-1.176-1.698m1.627 3.08c-.525-.162-1.055-.622-1.125-1.197.634.196 1.058.07 1.519.711q.092.384.161.77a2 2 0 0 0-.555-.284m1.217-.162a1.8 1.8 0 0 0-.343.381 14 14 0 0 0-.259-1.155c.076-.461.458-.76.743-.892-.086.452-.018.914.152 1.228-.083.192-.192.355-.293.438m5.529-9.182c.037.273.061.833-.248 1.281a2.2 2.2 0 0 0-.657.197 2.1 2.1 0 0 0-.149-.588c.184-.424.538-.723 1.053-.889m-.937 1.873c.225-.162.554-.264.945-.295-.037.265-.176.776-.7 1.077a1.1 1.1 0 0 1-.526.206 2.3 2.3 0 0 0-.345.063q.192-.307.401-.617a1.3 1.3 0 0 0 .224-.433m-.566-1.142c.25.393.433.977.08 1.384a21 21 0 0 0-.456.703 1.5 1.5 0 0 0-.277-.681c.109-.832.468-1.245.654-1.407m-1.174 1.311c.406.34.583.855.44 1.375q-.29.502-.536.985a1.65 1.65 0 0 0-.4-.817 2.95 2.95 0 0 1 .496-1.544m-.912 1.602c.484.363.646 1.022.41 1.598q-.181.395-.333.766a2 2 0 0 0-.378-.641 2.94 2.94 0 0 1 .301-1.724m-.72 1.762c.452.402.531.799.587 1.134q-.201.529-.368 1.055a2.4 2.4 0 0 0-.416-.465 3.05 3.05 0 0 1 .197-1.724m-.193 3.719a1.8 1.8 0 0 0-.322-.367c-.271-.211-.398-1.015-.124-1.563.207.147.584.458.723.844-.132.452-.22.821-.277 1.087m.836-.197a3 3 0 0 0-.505.198 15 15 0 0 1 .157-.64c.283-.539.905-.549 1.44-.697-.069.554-.585.99-1.092 1.139m.479-1.334-.015.011a2.2 2.2 0 0 0-.623.225c.205-.721.474-1.486 1.249-1.651a2.5 2.5 0 0 0 .505-.163c-.226.9-.782 1.37-1.116 1.579zm1.238-2.017a1.9 1.9 0 0 1-.694.284 1.5 1.5 0 0 0-.558.243 21 21 0 0 1 .511-1.141c.491-.353.755-.174 1.13-.364a1.32 1.32 0 0 1-.389.978m.443-1.388c-.058.035-.179.174-.57.206a1.5 1.5 0 0 0-.367.076q.28-.542.614-1.109c.474-.22.686-.127 1.039-.28a1.6 1.6 0 0 1-.716 1.107" data-original="#2b2b2b"/></svg>